<svg xmlns="http://www.w3.org/2000/svg" width="17.789" height="20.7" viewBox="0 0 17.789 20.7">
  <path id="bell_3_" data-name="bell (3)" d="M16.981,16.01h-.809V10.35A7.29,7.29,0,0,0,11,3.383a2.345,2.345,0,1,0-4.2,0A7.29,7.29,0,0,0,1.617,10.35v5.66H.809a.809.809,0,0,0,0,1.617H4.937a3.888,3.888,0,0,0,3.8,3.073h.323a3.888,3.888,0,0,0,3.8-3.073h4.128a.809.809,0,0,0,0-1.617ZM8.167,2.345a.728.728,0,1,1,.728.728A.729.729,0,0,1,8.167,2.345Zm.889,16.738H8.733a2.268,2.268,0,0,1-2.115-1.456h4.553A2.268,2.268,0,0,1,9.056,19.083ZM3.234,16.01V10.35a5.66,5.66,0,0,1,11.321,0v5.66Zm0,0" fill="#262626"/>
</svg>
