<?xml version="1.0" standalone="no"?><svg xmlns="http://www.w3.org/2000/svg" viewBox="0 0 1440 320"><path fill="#f3f4f5" fill-opacity="1" d="M0,96L0,32L57.6,32L57.6,32L115.2,32L115.2,224L172.8,224L172.8,224L230.4,224L230.4,96L288,96L288,160L345.6,160L345.6,288L403.2,288L403.2,32L460.8,32L460.8,0L518.4,0L518.4,160L576,160L576,64L633.6,64L633.6,96L691.2,96L691.2,64L748.8,64L748.8,192L806.4,192L806.4,96L864,96L864,192L921.6,192L921.6,160L979.2,160L979.2,64L1036.8,64L1036.8,128L1094.4,128L1094.4,128L1152,128L1152,64L1209.6,64L1209.6,96L1267.2,96L1267.2,0L1324.8,0L1324.8,256L1382.4,256L1382.4,32L1440,32L1440,320L1382.4,320L1382.4,320L1324.8,320L1324.8,320L1267.2,320L1267.2,320L1209.6,320L1209.6,320L1152,320L1152,320L1094.4,320L1094.4,320L1036.8,320L1036.8,320L979.2,320L979.2,320L921.6,320L921.6,320L864,320L864,320L806.4,320L806.4,320L748.8,320L748.8,320L691.2,320L691.2,320L633.6,320L633.6,320L576,320L576,320L518.4,320L518.4,320L460.8,320L460.8,320L403.2,320L403.2,320L345.6,320L345.6,320L288,320L288,320L230.4,320L230.4,320L172.8,320L172.8,320L115.2,320L115.2,320L57.6,320L57.6,320L0,320L0,320Z"></path></svg>